<?xml version="1.0" encoding="utf-8"?>
<!-- Generator: Adobe Illustrator 24.3.0, SVG Export Plug-In . SVG Version: 6.00 Build 0)  -->
<svg version="1.1" id="Layer_1" xmlns="http://www.w3.org/2000/svg" xmlns:xlink="http://www.w3.org/1999/xlink" x="0px" y="0px"
	 viewBox="0 0 489.85 172.63" style="enable-background:new 0 0 489.85 172.63;" xml:space="preserve">
<style type="text/css">
	.st0{fill:#F26522;}
	.st1{fill:none;}
</style>
<g>
	<g>
		<path class="st0" d="M484.33,112.72c-0.74,0.71-1.5,1.39-2.2,2.12c-3.82,3.99-7.63,7.99-11.43,12.01c-0.4,0.42-0.68,0.97-1.1,1.59
			c-5.27-5.52-10.19-10.69-15.18-15.92c0.29-0.65,0.56-1.28,0.85-1.91c2.9-6.22,5.8-12.44,8.67-18.67c0.31-0.66,0.54-1.43,0.54-2.15
			c0.03-11.65,0.02-23.29,0.02-34.94c0-0.21-0.02-0.43-0.05-0.92c-4.88,2.52-9.63,4.98-14.56,7.53c0-3.5,0-6.79,0-10.18
			c-32.57-17.22-65.02-17.02-97.54-0.01c0,3.38,0,6.62,0,10.2c-11.53-6.08-22.87-12.05-34.39-18.13c0.51-0.32,0.87-0.58,1.27-0.79
			C346.12,28.48,373,14.43,399.87,0.34c1.03-0.54,1.76-0.38,2.69,0.11c24.8,12.99,49.62,25.97,74.44,38.94
			c2.44,1.27,4.89,2.51,7.34,3.77c0,0.11,0,0.22,0,0.33c-3.34,1.74-6.69,3.48-10.01,5.2c-0.03,0.39-0.07,0.65-0.07,0.92
			c0,13.43-0.01,26.86,0.02,40.29c0,0.67,0.23,1.38,0.51,2c2.94,6.38,5.92,12.74,8.89,19.1c0.18,0.38,0.44,0.72,0.66,1.08
			C484.33,112.28,484.33,112.5,484.33,112.72z"/>
		<path class="st0" d="M440.05,57.11c0,13.31,0,26.45,0,39.7c-25.96,0-51.86,0-77.84,0c0-13.19,0-26.33,0-39.69
			C388.12,45.12,414.06,45.12,440.05,57.11z"/>
	</g>
	<g>
		<rect x="0" y="105.03" class="st1" width="661.04" height="272.73"/>
		<path class="st0" d="M43.33,163.75l-2.35-7.86H21.46l-2.35,7.86H0.81l20.33-55.73h20.82l20.33,55.73H43.33z M25.19,143.42h12.07
			l-5.83-19.84H31.1L25.19,143.42z"/>
		<path class="st0" d="M113.73,113.25c4.81,4.13,7.21,10.03,7.21,17.7h-17.09c0-3.24-0.85-5.8-2.55-7.69
			c-1.7-1.89-4.12-2.83-7.25-2.83c-3.62,0-6.28,1.13-7.98,3.4s-2.55,5.43-2.55,9.48v5.18c0,4,0.85,7.14,2.55,9.44
			c1.7,2.3,4.31,3.44,7.82,3.44c3.46,0,6.08-0.89,7.86-2.67c1.78-1.78,2.67-4.29,2.67-7.53h16.52c0,7.61-2.34,13.45-7.01,17.5
			c-4.67,4.05-11.27,6.08-19.8,6.08c-9.5,0-16.7-2.43-21.59-7.29c-4.89-4.86-7.33-12.04-7.33-21.55c0-9.5,2.44-16.69,7.33-21.55
			c4.89-4.86,12.08-7.29,21.59-7.29C102.39,107.05,108.92,109.12,113.73,113.25z"/>
		<path class="st0" d="M167.91,163.75l-2.35-7.86h-19.52l-2.35,7.86h-18.31l20.33-55.73h20.82l20.33,55.73H167.91z M149.77,143.42
			h12.07l-5.83-19.84h-0.32L149.77,143.42z"/>
		<path class="st0" d="M246.97,135.89c0,18.58-9.75,27.86-29.24,27.86h-24.14v-55.73h24.14
			C237.22,108.03,246.97,117.31,246.97,135.89z M211.49,150.39h5.91c7.5,0,11.26-4.02,11.26-12.07v-4.86
			c0-8.05-3.75-12.07-11.26-12.07h-5.91V150.39z"/>
		<path class="st0" d="M256.61,108.03h48.2v13.37h-30.29v7.69h25.92v12.8h-25.92v8.5h30.86v13.37h-48.76V108.03z"/>
		<path class="st0" d="M330.24,163.75l-19.76-55.73h19.12l11.18,37.26h0.32l11.26-37.26h18.31l-19.68,55.73H330.24z"/>
		<path class="st0" d="M425.33,114.43c5.24,4.91,7.86,12.07,7.86,21.47s-2.62,16.55-7.86,21.47c-5.24,4.91-12.66,7.37-22.27,7.37
			c-9.61,0-17.02-2.44-22.23-7.33c-5.21-4.89-7.82-12.06-7.82-21.51c0-9.45,2.61-16.62,7.82-21.51c5.21-4.89,12.62-7.33,22.23-7.33
			C412.67,107.05,420.09,109.51,425.33,114.43z M394.31,123.9c-2,2.32-3,5.46-3,9.4v5.18c0,3.94,1,7.07,3,9.4
			c2,2.32,4.91,3.48,8.75,3.48c3.83,0,6.76-1.16,8.79-3.48c2.03-2.32,3.04-5.45,3.04-9.4v-5.18c0-3.94-1.01-7.07-3.04-9.4
			c-2.02-2.32-4.96-3.48-8.79-3.48C399.22,120.42,396.3,121.58,394.31,123.9z"/>
	</g>
</g>
</svg>
